<svg xmlns="http://www.w3.org/2000/svg" width="10" height="14" fill="none"><path fill="currentColor" fill-opacity=".56" fill-rule="evenodd" d="M3.998 3H6V2H3.99c.004 0 .007.5.008 1zM8 3V1.999A1.992 1.992 0 006.01 0H3.99A2 2 0 002 1.999V3H.875C.392 3 0 3.448 0 4s.392 1 .875 1h8.25C9.608 5 10 4.552 10 4s-.392-1-.875-1H8zM.005 7.1l.495 4c.162 1.617 1.375 2.9 3 2.9h3c1.622 0 2.838-1.28 3-2.9l.495-4a1 1 0 10-1.99-.2l-.5 4.1c-.06.599-.412 1-1.005 1h-3c-.594 0-.945-.403-1.005-1l-.5-4.1a1 1 0 10-1.99.2z" clip-rule="evenodd"/></svg>