<?xml version="1.0" standalone="no"?>
<!DOCTYPE svg PUBLIC "-//W3C//DTD SVG 20010904//EN"
 "http://www.w3.org/TR/2001/REC-SVG-20010904/DTD/svg10.dtd">
<svg version="1.0" xmlns="http://www.w3.org/2000/svg"
 width="120.000000pt" height="120.000000pt" viewBox="0 0 120.000000 120.000000"
 preserveAspectRatio="xMidYMid meet">
<metadata>
Created by potrace 1.14, written by Peter Selinger 2001-2017
</metadata>
<g transform="translate(0.000000,120.000000) scale(0.100000,-0.100000)"
fill="#000000" stroke="none">
<path d="M1085 1169 c-33 -4 -94 -10 -135 -14 -41 -3 -91 -8 -110 -10 -19 -2
-69 -7 -110 -10 -41 -4 -78 -9 -82 -12 -4 -2 -7 -113 -7 -248 l0 -244 280 0
279 1 0 272 0 272 -27 0 c-16 0 -55 -4 -88 -7z"/>
<path d="M497 1114 c-1 -1 -37 -5 -80 -9 -43 -3 -88 -8 -100 -10 -12 -2 -58
-6 -102 -9 -44 -3 -90 -8 -103 -11 -13 -2 -43 -5 -68 -6 l-44 -3 0 -218 0
-217 283 2 282 2 3 241 2 241 -36 -1 c-19 0 -36 -2 -37 -2z"/>
<path d="M4 561 c-2 -2 -4 -100 -4 -218 l0 -213 23 -1 c12 0 31 -2 41 -4 11
-2 54 -6 95 -9 42 -4 92 -8 111 -11 81 -11 149 -17 205 -20 33 -2 67 -5 75 -6
13 -4 15 29 18 239 1 133 -1 242 -5 243 -29 3 -556 3 -559 0z"/>
<path d="M641 315 l1 -251 27 0 c32 0 182 -13 236 -20 22 -2 60 -6 85 -8 25
-2 82 -7 128 -11 l82 -8 -2 274 -3 273 -277 0 -278 1 1 -250z"/>
</g>
</svg>
