<?xml version="1.0" standalone="no"?>
<!DOCTYPE svg PUBLIC "-//W3C//DTD SVG 20010904//EN"
 "http://www.w3.org/TR/2001/REC-SVG-20010904/DTD/svg10.dtd">
<svg version="1.0" xmlns="http://www.w3.org/2000/svg"
 width="700.000000pt" height="700.000000pt" viewBox="0 0 700.000000 700.000000"
 preserveAspectRatio="xMidYMid meet">
<metadata>
Created by potrace 1.14, written by Peter Selinger 2001-2017
</metadata>
<g transform="translate(0.000000,700.000000) scale(0.100000,-0.100000)"
fill="#000000" stroke="none">
<path d="M1310 3500 l0 -2190 2190 0 2190 0 0 2190 0 2190 -2190 0 -2190 0 0
-2190z m3532 1617 c142 -37 368 -150 384 -191 3 -9 -35 -74 -88 -152 -51 -76
-96 -142 -99 -147 -4 -6 -35 8 -70 32 -124 80 -310 136 -429 128 -103 -7 -172
-50 -191 -120 -22 -82 14 -148 103 -193 27 -14 128 -48 225 -75 278 -79 392
-132 486 -224 60 -60 92 -113 111 -190 20 -76 20 -224 1 -300 -50 -189 -198
-329 -412 -387 -104 -28 -301 -30 -423 -5 -177 38 -382 129 -507 225 l-61 48
115 142 114 142 52 -38 c179 -131 353 -192 511 -179 156 12 236 74 236 180 0
89 -95 148 -355 222 -279 79 -392 132 -479 225 -80 86 -116 189 -116 336 0
156 46 272 151 376 77 78 188 137 304 162 106 24 312 15 437 -17z m-2652 -512
c74 -283 137 -515 140 -515 3 0 73 231 155 513 l150 512 154 0 154 0 151 -517
c83 -285 153 -514 157 -510 3 4 65 236 138 516 72 281 133 511 135 513 2 2 98
2 213 1 l210 -3 -261 -905 -262 -905 -167 -3 c-166 -2 -167 -2 -176 20 -5 13
-70 244 -146 513 -75 270 -140 493 -144 497 -3 4 -71 -226 -151 -510 l-146
-517 -164 -3 c-90 -1 -167 1 -171 5 -4 5 -123 406 -264 893 -140 487 -258 893
-261 903 -5 16 9 17 208 17 l214 0 134 -515z m1180 -2610 l0 -135 -820 0 -820
0 0 135 0 135 820 0 820 0 0 -135z"/>
<path d="M2049 951 c-432 -163 -795 -301 -808 -306 -17 -8 65 -25 391 -83
2234 -392 3169 -554 3174 -550 7 8 245 1211 240 1216 -2 2 -260 -149 -572
-334 -313 -185 -576 -339 -584 -341 -8 -2 -85 44 -170 103 -576 399 -864 594
-874 593 -6 -1 -364 -135 -797 -298z"/>
</g>
</svg>
